<?xml version="1.0" encoding="UTF-8"?>
<svg xmlns="http://www.w3.org/2000/svg" viewBox="0 0 960 750" width="960" height="750">
<rect width="100%" height="100%" fill="#fff"/>
<defs>
  <marker id="a" markerWidth="10" markerHeight="7" refX="9" refY="3.5" orient="auto"><polygon points="0 0,10 3.5,0 7" fill="#444"/></marker>
  <style type="text/css"><![CDATA[
    .c{font-family:PingFang SC,Microsoft YaHei,Noto Sans CJK SC,sans-serif;font-size:15px;font-weight:bold;fill:#1565c0}
    .l{font-family:PingFang SC,Microsoft YaHei,Noto Sans CJK SC,sans-serif;font-size:11px;fill:#333}
    .x{font-family:Menlo,Consolas,monospace;font-size:9px;fill:#666}
    .m{font-family:Menlo,Consolas,monospace;font-size:10px;fill:#0d47a1}
  ]]></style>
</defs>
<text x="480" y="30" text-anchor="middle" class="c">双差分（diff）打分示意</text>
<text x="480" y="50" text-anchor="middle" class="x">tau_q = ATE(A[qi, img])    tau_tt = ATE(mean_col(A[img,img]))    score = tau_q + lambda * tau_tt</text>
<text x="80" y="80" class="l">注意力矩阵 A  (10x10)</text>
<text x="80" y="95" class="x">行=query  列=key  深色=高注意力</text>
<text x="66" y="147" text-anchor="end" class="x">0</text>
<text x="66" y="175" text-anchor="end" class="x">1</text>
<text x="66" y="203" text-anchor="end" class="x">2</text>
<text x="66" y="231" text-anchor="end" class="x">3</text>
<text x="66" y="259" text-anchor="end" class="x">4</text>
<text x="66" y="287" text-anchor="end" class="x">5</text>
<text x="66" y="315" text-anchor="end" class="x">6</text>
<text x="66" y="343" text-anchor="end" class="x">7</text>
<text x="66" y="371" text-anchor="end" class="x">8</text>
<text x="66" y="399" text-anchor="end" class="x">9</text>
<text x="94" y="122" text-anchor="middle" class="x">0</text>
<text x="122" y="122" text-anchor="middle" class="x">1</text>
<text x="150" y="122" text-anchor="middle" class="x">2</text>
<text x="178" y="122" text-anchor="middle" class="x">3</text>
<text x="206" y="122" text-anchor="middle" class="x">4</text>
<text x="234" y="122" text-anchor="middle" class="x">5</text>
<text x="262" y="122" text-anchor="middle" class="x">6</text>
<text x="290" y="122" text-anchor="middle" class="x">7</text>
<text x="318" y="122" text-anchor="middle" class="x">8</text>
<text x="346" y="122" text-anchor="middle" class="x">9</text>
<rect x="80" y="130" width="28" height="28" fill="rgb(247,251,255)" stroke="#b0bec5" stroke-width="0.5"/>
<rect x="108" y="130" width="28" height="28" fill="rgb(247,251,255)" stroke="#b0bec5" stroke-width="0.5"/>
<rect x="136" y="130" width="28" height="28" fill="rgb(250,252,255)" stroke="#b0bec5" stroke-width="0.5"/>
<rect x="164" y="130" width="28" height="28" fill="rgb(250,252,255)" stroke="#b0bec5" stroke-width="0.5"/>
<rect x="192" y="130" width="28" height="28" fill="rgb(250,252,255)" stroke="#b0bec5" stroke-width="0.5"/>
<rect x="220" y="130" width="28" height="28" fill="rgb(250,252,255)" stroke="#b0bec5" stroke-width="0.5"/>
<rect x="248" y="130" width="28" height="28" fill="rgb(250,252,255)" stroke="#b0bec5" stroke-width="0.5"/>
<rect x="276" y="130" width="28" height="28" fill="rgb(250,252,255)" stroke="#b0bec5" stroke-width="0.5"/>
<rect x="304" y="130" width="28" height="28" fill="rgb(250,252,255)" stroke="#b0bec5" stroke-width="0.5"/>
<rect x="332" y="130" width="28" height="28" fill="rgb(250,252,255)" stroke="#b0bec5" stroke-width="0.5"/>
<rect x="80" y="158" width="28" height="28" fill="rgb(241,247,255)" stroke="#b0bec5" stroke-width="0.5"/>
<rect x="108" y="158" width="28" height="28" fill="rgb(243,248,255)" stroke="#b0bec5" stroke-width="0.5"/>
<rect x="136" y="158" width="28" height="28" fill="rgb(248,251,255)" stroke="#b0bec5" stroke-width="0.5"/>
<rect x="164" y="158" width="28" height="28" fill="rgb(251,253,255)" stroke="#b0bec5" stroke-width="0.5"/>
<rect x="192" y="158" width="28" height="28" fill="rgb(254,254,255)" stroke="#b0bec5" stroke-width="0.5"/>
<rect x="220" y="158" width="28" height="28" fill="rgb(255,255,255)" stroke="#b0bec5" stroke-width="0.5"/>
<rect x="248" y="158" width="28" height="28" fill="rgb(255,255,255)" stroke="#b0bec5" stroke-width="0.5"/>
<rect x="276" y="158" width="28" height="28" fill="rgb(253,254,255)" stroke="#b0bec5" stroke-width="0.5"/>
<rect x="304" y="158" width="28" height="28" fill="rgb(249,252,255)" stroke="#b0bec5" stroke-width="0.5"/>
<rect x="332" y="158" width="28" height="28" fill="rgb(246,250,255)" stroke="#b0bec5" stroke-width="0.5"/>
<rect x="80" y="186" width="28" height="28" fill="rgb(239,246,255)" stroke="#b0bec5" stroke-width="0.5"/>
<rect x="108" y="186" width="28" height="28" fill="rgb(241,247,255)" stroke="#b0bec5" stroke-width="0.5"/>
<rect x="136" y="186" width="28" height="28" fill="rgb(238,245,255)" stroke="#b0bec5" stroke-width="0.5"/>
<rect x="164" y="186" width="28" height="28" fill="rgb(235,244,255)" stroke="#b0bec5" stroke-width="0.5"/>
<rect x="192" y="186" width="28" height="28" fill="rgb(239,246,255)" stroke="#b0bec5" stroke-width="0.5"/>
<rect x="220" y="186" width="28" height="28" fill="rgb(233,243,255)" stroke="#b0bec5" stroke-width="0.5"/>
<rect x="248" y="186" width="28" height="28" fill="rgb(237,245,255)" stroke="#b0bec5" stroke-width="0.5"/>
<rect x="276" y="186" width="28" height="28" fill="rgb(254,254,255)" stroke="#b0bec5" stroke-width="0.5"/>
<rect x="304" y="186" width="28" height="28" fill="rgb(249,252,255)" stroke="#b0bec5" stroke-width="0.5"/>
<rect x="332" y="186" width="28" height="28" fill="rgb(245,249,255)" stroke="#b0bec5" stroke-width="0.5"/>
<rect x="80" y="214" width="28" height="28" fill="rgb(242,247,255)" stroke="#b0bec5" stroke-width="0.5"/>
<rect x="108" y="214" width="28" height="28" fill="rgb(243,248,255)" stroke="#b0bec5" stroke-width="0.5"/>
<rect x="136" y="214" width="28" height="28" fill="rgb(238,245,255)" stroke="#b0bec5" stroke-width="0.5"/>
<rect x="164" y="214" width="28" height="28" fill="rgb(235,244,255)" stroke="#b0bec5" stroke-width="0.5"/>
<rect x="192" y="214" width="28" height="28" fill="rgb(239,246,255)" stroke="#b0bec5" stroke-width="0.5"/>
<rect x="220" y="214" width="28" height="28" fill="rgb(233,243,255)" stroke="#b0bec5" stroke-width="0.5"/>
<rect x="248" y="214" width="28" height="28" fill="rgb(237,245,255)" stroke="#b0bec5" stroke-width="0.5"/>
<rect x="276" y="214" width="28" height="28" fill="rgb(253,253,255)" stroke="#b0bec5" stroke-width="0.5"/>
<rect x="304" y="214" width="28" height="28" fill="rgb(250,252,255)" stroke="#b0bec5" stroke-width="0.5"/>
<rect x="332" y="214" width="28" height="28" fill="rgb(247,250,255)" stroke="#b0bec5" stroke-width="0.5"/>
<rect x="80" y="242" width="28" height="28" fill="rgb(248,251,255)" stroke="#b0bec5" stroke-width="0.5"/>
<rect x="108" y="242" width="28" height="28" fill="rgb(248,251,255)" stroke="#b0bec5" stroke-width="0.5"/>
<rect x="136" y="242" width="28" height="28" fill="rgb(238,245,255)" stroke="#b0bec5" stroke-width="0.5"/>
<rect x="164" y="242" width="28" height="28" fill="rgb(235,244,255)" stroke="#b0bec5" stroke-width="0.5"/>
<rect x="192" y="242" width="28" height="28" fill="rgb(239,246,255)" stroke="#b0bec5" stroke-width="0.5"/>
<rect x="220" y="242" width="28" height="28" fill="rgb(233,243,255)" stroke="#b0bec5" stroke-width="0.5"/>
<rect x="248" y="242" width="28" height="28" fill="rgb(237,245,255)" stroke="#b0bec5" stroke-width="0.5"/>
<rect x="276" y="242" width="28" height="28" fill="rgb(250,252,255)" stroke="#b0bec5" stroke-width="0.5"/>
<rect x="304" y="242" width="28" height="28" fill="rgb(250,252,255)" stroke="#b0bec5" stroke-width="0.5"/>
<rect x="332" y="242" width="28" height="28" fill="rgb(250,252,255)" stroke="#b0bec5" stroke-width="0.5"/>
<rect x="80" y="270" width="28" height="28" fill="rgb(253,254,255)" stroke="#b0bec5" stroke-width="0.5"/>
<rect x="108" y="270" width="28" height="28" fill="rgb(252,253,255)" stroke="#b0bec5" stroke-width="0.5"/>
<rect x="136" y="270" width="28" height="28" fill="rgb(238,245,255)" stroke="#b0bec5" stroke-width="0.5"/>
<rect x="164" y="270" width="28" height="28" fill="rgb(235,244,255)" stroke="#b0bec5" stroke-width="0.5"/>
<rect x="192" y="270" width="28" height="28" fill="rgb(239,246,255)" stroke="#b0bec5" stroke-width="0.5"/>
<rect x="220" y="270" width="28" height="28" fill="rgb(233,243,255)" stroke="#b0bec5" stroke-width="0.5"/>
<rect x="248" y="270" width="28" height="28" fill="rgb(237,245,255)" stroke="#b0bec5" stroke-width="0.5"/>
<rect x="276" y="270" width="28" height="28" fill="rgb(247,250,255)" stroke="#b0bec5" stroke-width="0.5"/>
<rect x="304" y="270" width="28" height="28" fill="rgb(251,252,255)" stroke="#b0bec5" stroke-width="0.5"/>
<rect x="332" y="270" width="28" height="28" fill="rgb(254,254,255)" stroke="#b0bec5" stroke-width="0.5"/>
<rect x="80" y="298" width="28" height="28" fill="rgb(255,255,255)" stroke="#b0bec5" stroke-width="0.5"/>
<rect x="108" y="298" width="28" height="28" fill="rgb(254,254,255)" stroke="#b0bec5" stroke-width="0.5"/>
<rect x="136" y="298" width="28" height="28" fill="rgb(238,245,255)" stroke="#b0bec5" stroke-width="0.5"/>
<rect x="164" y="298" width="28" height="28" fill="rgb(235,244,255)" stroke="#b0bec5" stroke-width="0.5"/>
<rect x="192" y="298" width="28" height="28" fill="rgb(239,246,255)" stroke="#b0bec5" stroke-width="0.5"/>
<rect x="220" y="298" width="28" height="28" fill="rgb(233,243,255)" stroke="#b0bec5" stroke-width="0.5"/>
<rect x="248" y="298" width="28" height="28" fill="rgb(237,245,255)" stroke="#b0bec5" stroke-width="0.5"/>
<rect x="276" y="298" width="28" height="28" fill="rgb(246,250,255)" stroke="#b0bec5" stroke-width="0.5"/>
<rect x="304" y="298" width="28" height="28" fill="rgb(251,252,255)" stroke="#b0bec5" stroke-width="0.5"/>
<rect x="332" y="298" width="28" height="28" fill="rgb(255,255,255)" stroke="#b0bec5" stroke-width="0.5"/>
<rect x="80" y="326" width="28" height="28" fill="rgb(252,253,255)" stroke="#b0bec5" stroke-width="0.5"/>
<rect x="108" y="326" width="28" height="28" fill="rgb(252,253,255)" stroke="#b0bec5" stroke-width="0.5"/>
<rect x="136" y="326" width="28" height="28" fill="rgb(252,253,255)" stroke="#b0bec5" stroke-width="0.5"/>
<rect x="164" y="326" width="28" height="28" fill="rgb(249,251,255)" stroke="#b0bec5" stroke-width="0.5"/>
<rect x="192" y="326" width="28" height="28" fill="rgb(246,250,255)" stroke="#b0bec5" stroke-width="0.5"/>
<rect x="220" y="326" width="28" height="28" fill="rgb(245,249,255)" stroke="#b0bec5" stroke-width="0.5"/>
<rect x="248" y="326" width="28" height="28" fill="rgb(245,249,255)" stroke="#b0bec5" stroke-width="0.5"/>
<rect x="276" y="326" width="28" height="28" fill="rgb(247,251,255)" stroke="#b0bec5" stroke-width="0.5"/>
<rect x="304" y="326" width="28" height="28" fill="rgb(250,252,255)" stroke="#b0bec5" stroke-width="0.5"/>
<rect x="332" y="326" width="28" height="28" fill="rgb(253,254,255)" stroke="#b0bec5" stroke-width="0.5"/>
<rect x="80" y="354" width="28" height="28" fill="rgb(246,250,255)" stroke="#b0bec5" stroke-width="0.5"/>
<rect x="108" y="354" width="28" height="28" fill="rgb(247,250,255)" stroke="#b0bec5" stroke-width="0.5"/>
<rect x="136" y="354" width="28" height="28" fill="rgb(250,252,255)" stroke="#b0bec5" stroke-width="0.5"/>
<rect x="164" y="354" width="28" height="28" fill="rgb(250,252,255)" stroke="#b0bec5" stroke-width="0.5"/>
<rect x="192" y="354" width="28" height="28" fill="rgb(251,252,255)" stroke="#b0bec5" stroke-width="0.5"/>
<rect x="220" y="354" width="28" height="28" fill="rgb(251,253,255)" stroke="#b0bec5" stroke-width="0.5"/>
<rect x="248" y="354" width="28" height="28" fill="rgb(251,252,255)" stroke="#b0bec5" stroke-width="0.5"/>
<rect x="276" y="354" width="28" height="28" fill="rgb(250,252,255)" stroke="#b0bec5" stroke-width="0.5"/>
<rect x="304" y="354" width="28" height="28" fill="rgb(250,252,255)" stroke="#b0bec5" stroke-width="0.5"/>
<rect x="332" y="354" width="28" height="28" fill="rgb(249,252,255)" stroke="#b0bec5" stroke-width="0.5"/>
<rect x="80" y="382" width="28" height="28" fill="rgb(241,247,255)" stroke="#b0bec5" stroke-width="0.5"/>
<rect x="108" y="382" width="28" height="28" fill="rgb(242,248,255)" stroke="#b0bec5" stroke-width="0.5"/>
<rect x="136" y="382" width="28" height="28" fill="rgb(235,243,255)" stroke="#b0bec5" stroke-width="0.5"/>
<rect x="164" y="382" width="28" height="28" fill="rgb(223,237,255)" stroke="#b0bec5" stroke-width="0.5"/>
<rect x="192" y="382" width="28" height="28" fill="rgb(232,242,255)" stroke="#b0bec5" stroke-width="0.5"/>
<rect x="220" y="382" width="28" height="28" fill="rgb(221,236,255)" stroke="#b0bec5" stroke-width="0.5"/>
<rect x="248" y="382" width="28" height="28" fill="rgb(228,240,255)" stroke="#b0bec5" stroke-width="0.5"/>
<rect x="276" y="382" width="28" height="28" fill="rgb(253,254,255)" stroke="#b0bec5" stroke-width="0.5"/>
<rect x="304" y="382" width="28" height="28" fill="rgb(249,252,255)" stroke="#b0bec5" stroke-width="0.5"/>
<rect x="332" y="382" width="28" height="28" fill="rgb(246,250,255)" stroke="#b0bec5" stroke-width="0.5"/>
<rect x="78" y="128" width="60" height="284" fill="none" stroke="#7b1fa2" stroke-width="1.5"/>
<text x="108" y="70" text-anchor="middle" class="l" fill="#7b1fa2">前缀</text>
<rect x="134" y="128" width="144" height="284" fill="none" stroke="#2e7d32" stroke-width="2" stroke-dasharray="5 3"/>
<text x="206.0" y="70" text-anchor="middle" class="l" fill="#2e7d32">图像列</text>
<rect x="76" y="380" width="288" height="32" fill="none" stroke="#c62828" stroke-width="2.5"/>
<text x="370" y="399" class="l" fill="#c62828">qi = L-1</text>
<rect x="133" y="379" width="146" height="34" fill="rgba(255,152,0,0.25)" stroke="#e65100" stroke-width="2"/>
<text x="206.0" y="432" text-anchor="middle" class="m">q_to_img = A[qi, img]</text>
<rect x="133" y="183" width="146" height="146" fill="rgba(76,175,80,0.12)" stroke="#1b5e20" stroke-width="2"/>
<text x="206.0" y="176" text-anchor="middle" class="m">m = A[img, img]</text>
<text x="440" y="130" class="l" fill="#e65100">q_to_img（红框那一行的图像段）</text>
<rect x="440" y="173.5" width="22" height="23.5" fill="#e65100" stroke="#bf360c" stroke-width="0.6"/>
<text x="451" y="214" text-anchor="middle" class="x">2</text>
<rect x="470" y="150.0" width="22" height="47.0" fill="#e65100" stroke="#bf360c" stroke-width="0.6"/>
<text x="481" y="214" text-anchor="middle" class="x">3</text>
<rect x="500" y="168.5" width="22" height="28.5" fill="#e65100" stroke="#bf360c" stroke-width="0.6"/>
<text x="511" y="214" text-anchor="middle" class="x">4</text>
<rect x="530" y="145.5" width="22" height="51.5" fill="#e65100" stroke="#bf360c" stroke-width="0.6"/>
<text x="541" y="214" text-anchor="middle" class="x">5</text>
<rect x="560" y="161.0" width="22" height="36.0" fill="#e65100" stroke="#bf360c" stroke-width="0.6"/>
<text x="571" y="214" text-anchor="middle" class="x">6</text>
<line x1="515" y1="222" x2="515" y2="242" stroke="#444" marker-end="url(#a)"/>
<text x="555" y="236" class="m">ATE_diff_1d</text>
<text x="440" y="244" class="l" fill="#c62828">tau_q（差分后）</text>
<rect x="440" y="290.8" width="22" height="11.2" fill="#c62828" stroke="#b71c1c" stroke-width="0.6"/>
<rect x="470" y="267.3" width="22" height="34.7" fill="#c62828" stroke="#b71c1c" stroke-width="0.6"/>
<rect x="500" y="285.8" width="22" height="16.2" fill="#c62828" stroke="#b71c1c" stroke-width="0.6"/>
<rect x="530" y="262.8" width="22" height="39.2" fill="#c62828" stroke="#b71c1c" stroke-width="0.6"/>
<rect x="560" y="278.3" width="22" height="23.7" fill="#c62828" stroke="#b71c1c" stroke-width="0.6"/>
<text x="440" y="332" class="l" fill="#2e7d32">peer = mean(m, dim=0)（图像列均值）</text>
<rect x="440" y="368.0" width="22" height="31.0" fill="#2e7d32" stroke="#1b5e20" stroke-width="0.6"/>
<rect x="470" y="358.0" width="22" height="41.0" fill="#2e7d32" stroke="#1b5e20" stroke-width="0.6"/>
<rect x="500" y="374.0" width="22" height="25.0" fill="#2e7d32" stroke="#1b5e20" stroke-width="0.6"/>
<rect x="530" y="350.5" width="22" height="48.5" fill="#2e7d32" stroke="#1b5e20" stroke-width="0.6"/>
<rect x="560" y="365.5" width="22" height="33.5" fill="#2e7d32" stroke="#1b5e20" stroke-width="0.6"/>
<line x1="515" y1="408" x2="515" y2="428" stroke="#444" marker-end="url(#a)"/>
<text x="555" y="422" class="m">ATE_diff_1d</text>
<text x="440" y="432" class="l" fill="#1b5e20">tau_tt（差分后）</text>
<rect x="440" y="467.8" width="22" height="20.2" fill="#1b5e20" stroke="#0d3e10" stroke-width="0.6"/>
<rect x="470" y="457.8" width="22" height="30.2" fill="#1b5e20" stroke="#0d3e10" stroke-width="0.6"/>
<rect x="500" y="473.8" width="22" height="14.2" fill="#1b5e20" stroke="#0d3e10" stroke-width="0.6"/>
<rect x="530" y="450.3" width="22" height="37.7" fill="#1b5e20" stroke="#0d3e10" stroke-width="0.6"/>
<rect x="560" y="465.3" width="22" height="22.7" fill="#1b5e20" stroke="#0d3e10" stroke-width="0.6"/>
<text x="440" y="518" class="l" fill="#0d47a1">scores = tau_q + lambda_tt * tau_tt</text>
<rect x="440" y="574.0" width="22" height="11.0" fill="#1565c0" stroke="#0d47a1" stroke-width="0.6"/>
<text x="451" y="602" text-anchor="middle" class="x">2</text>
<rect x="470" y="548.8" width="22" height="36.2" fill="#1565c0" stroke="#0d47a1" stroke-width="0.6"/>
<text x="481" y="602" text-anchor="middle" class="x">3</text>
<rect x="500" y="574.7" width="22" height="10.3" fill="#1565c0" stroke="#0d47a1" stroke-width="0.6"/>
<text x="511" y="602" text-anchor="middle" class="x">4</text>
<rect x="530" y="539.8" width="22" height="45.2" fill="#1565c0" stroke="#0d47a1" stroke-width="0.6"/>
<text x="541" y="602" text-anchor="middle" class="x">5</text>
<rect x="560" y="562.7" width="22" height="22.3" fill="#1565c0" stroke="#0d47a1" stroke-width="0.6"/>
<text x="571" y="602" text-anchor="middle" class="x">6</text>
<rect x="527" y="535.8" width="28" height="52.2" fill="none" stroke="#ffd600" stroke-width="3"/>
<rect x="467" y="544.8" width="28" height="43.2" fill="none" stroke="#ffd600" stroke-width="3"/>
<rect x="557" y="558.7" width="28" height="29.3" fill="none" stroke="#ffd600" stroke-width="3"/>
<text x="515" y="618" text-anchor="middle" class="l" fill="#f57c00">topk → 黄框 = 保留的图像 token</text>
</svg>