<?xml version="1.0" encoding="UTF-8"?>
<svg xmlns="http://www.w3.org/2000/svg" viewBox="0 0 920 680" width="920" height="680">
  <rect width="100%" height="100%" fill="#ffffff"/>
  <defs>
    <marker id="mk" markerWidth="10" markerHeight="7" refX="9" refY="3.5" orient="auto"><polygon points="0 0,10 3.5,0 7" fill="#444"/></marker>
    <style type="text/css"><![CDATA[
      .lbl{font-family:PingFang SC,Microsoft YaHei,Noto Sans CJK SC,sans-serif;font-size:11px;fill:#333}
      .ax{font-family:Menlo,Consolas,monospace;font-size:9px;fill:#666}
      .cap{font-family:PingFang SC,Microsoft YaHei,sans-serif;font-size:15px;font-weight:bold;fill:#1565c0}
      .sub{font-family:Menlo,Consolas,monospace;font-size:10px;fill:#555}
    ]]></style>
  </defs>
  <text x="460" y="34" text-anchor="middle" class="cap">FastV：矩阵运算（示意）</text>
  <text x="460" y="56" text-anchor="middle" class="sub">A[i,j] = query_i → key_j  |  颜色越深 ≈ 注意力越高</text>
  <text x="52" y="125.0" text-anchor="end" class="ax">0</text>
  <text x="52" y="147.0" text-anchor="end" class="ax">1</text>
  <text x="52" y="169.0" text-anchor="end" class="ax">2</text>
  <text x="52" y="191.0" text-anchor="end" class="ax">3</text>
  <text x="52" y="213.0" text-anchor="end" class="ax">4</text>
  <text x="52" y="235.0" text-anchor="end" class="ax">5</text>
  <text x="52" y="257.0" text-anchor="end" class="ax">6</text>
  <text x="52" y="279.0" text-anchor="end" class="ax">7</text>
  <text x="52" y="301.0" text-anchor="end" class="ax">8</text>
  <text x="52" y="323.0" text-anchor="end" class="ax">9</text>
  <text x="52" y="345.0" text-anchor="end" class="ax">10</text>
  <text x="52" y="367.0" text-anchor="end" class="ax">11</text>
  <text x="52" y="389.0" text-anchor="end" class="ax">12</text>
  <text x="52" y="411.0" text-anchor="end" class="ax">13</text>
  <text x="81.0" y="102" text-anchor="middle" class="ax">0</text>
  <text x="103.0" y="102" text-anchor="middle" class="ax">1</text>
  <text x="125.0" y="102" text-anchor="middle" class="ax">2</text>
  <text x="147.0" y="102" text-anchor="middle" class="ax">3</text>
  <text x="169.0" y="102" text-anchor="middle" class="ax">4</text>
  <text x="191.0" y="102" text-anchor="middle" class="ax">5</text>
  <text x="213.0" y="102" text-anchor="middle" class="ax">6</text>
  <text x="235.0" y="102" text-anchor="middle" class="ax">7</text>
  <text x="257.0" y="102" text-anchor="middle" class="ax">8</text>
  <text x="279.0" y="102" text-anchor="middle" class="ax">9</text>
  <text x="301.0" y="102" text-anchor="middle" class="ax">10</text>
  <text x="323.0" y="102" text-anchor="middle" class="ax">11</text>
  <text x="345.0" y="102" text-anchor="middle" class="ax">12</text>
  <text x="367.0" y="102" text-anchor="middle" class="ax">13</text>
  <text x="30" y="264.0" text-anchor="middle" class="lbl" transform="rotate(-90 30,264.0)">i（query）</text>
  <text x="224.0" y="80" text-anchor="middle" class="lbl">j（key）</text>
  <text x="70" y="58" class="lbl">A = mean_h(attn)，形状 14×14</text>
  <rect x="133" y="107" width="138" height="314" fill="none" stroke="#2e7d32" stroke-width="2" stroke-dasharray="5 3"/>
  <text x="202.0" y="48" text-anchor="middle" class="lbl" fill="#2e7d32">图像列 j ∈ [img_start, img_end)</text>
  <rect x="67" y="107" width="72" height="314" fill="none" stroke="#7b1fa2" stroke-width="1.5"/>
  <text x="103.0" y="48" text-anchor="middle" class="lbl" fill="#7b1fa2">前缀列</text>
  <rect x="70" y="110" width="22" height="22" fill="rgb(244,249,255)" stroke="#90a4ae" stroke-width="0.5"/>
  <rect x="92" y="110" width="22" height="22" fill="rgb(244,249,255)" stroke="#90a4ae" stroke-width="0.5"/>
  <rect x="114" y="110" width="22" height="22" fill="rgb(244,249,255)" stroke="#90a4ae" stroke-width="0.5"/>
  <rect x="136" y="110" width="22" height="22" fill="rgb(248,251,255)" stroke="#90a4ae" stroke-width="0.5"/>
  <rect x="158" y="110" width="22" height="22" fill="rgb(248,251,255)" stroke="#90a4ae" stroke-width="0.5"/>
  <rect x="180" y="110" width="22" height="22" fill="rgb(248,251,255)" stroke="#90a4ae" stroke-width="0.5"/>
  <rect x="202" y="110" width="22" height="22" fill="rgb(248,251,255)" stroke="#90a4ae" stroke-width="0.5"/>
  <rect x="224" y="110" width="22" height="22" fill="rgb(248,251,255)" stroke="#90a4ae" stroke-width="0.5"/>
  <rect x="246" y="110" width="22" height="22" fill="rgb(248,251,255)" stroke="#90a4ae" stroke-width="0.5"/>
  <rect x="268" y="110" width="22" height="22" fill="rgb(248,251,255)" stroke="#90a4ae" stroke-width="0.5"/>
  <rect x="290" y="110" width="22" height="22" fill="rgb(248,251,255)" stroke="#90a4ae" stroke-width="0.5"/>
  <rect x="312" y="110" width="22" height="22" fill="rgb(248,251,255)" stroke="#90a4ae" stroke-width="0.5"/>
  <rect x="334" y="110" width="22" height="22" fill="rgb(248,251,255)" stroke="#90a4ae" stroke-width="0.5"/>
  <rect x="356" y="110" width="22" height="22" fill="rgb(248,251,255)" stroke="#90a4ae" stroke-width="0.5"/>
  <rect x="70" y="132" width="22" height="22" fill="rgb(235,245,255)" stroke="#90a4ae" stroke-width="0.5"/>
  <rect x="92" y="132" width="22" height="22" fill="rgb(236,245,255)" stroke="#90a4ae" stroke-width="0.5"/>
  <rect x="114" y="132" width="22" height="22" fill="rgb(238,247,255)" stroke="#90a4ae" stroke-width="0.5"/>
  <rect x="136" y="132" width="22" height="22" fill="rgb(246,250,255)" stroke="#90a4ae" stroke-width="0.5"/>
  <rect x="158" y="132" width="22" height="22" fill="rgb(250,252,255)" stroke="#90a4ae" stroke-width="0.5"/>
  <rect x="180" y="132" width="22" height="22" fill="rgb(253,254,255)" stroke="#90a4ae" stroke-width="0.5"/>
  <rect x="202" y="132" width="22" height="22" fill="rgb(255,255,255)" stroke="#90a4ae" stroke-width="0.5"/>
  <rect x="224" y="132" width="22" height="22" fill="rgb(255,255,255)" stroke="#90a4ae" stroke-width="0.5"/>
  <rect x="246" y="132" width="22" height="22" fill="rgb(255,255,255)" stroke="#90a4ae" stroke-width="0.5"/>
  <rect x="268" y="132" width="22" height="22" fill="rgb(253,254,255)" stroke="#90a4ae" stroke-width="0.5"/>
  <rect x="290" y="132" width="22" height="22" fill="rgb(250,252,255)" stroke="#90a4ae" stroke-width="0.5"/>
  <rect x="312" y="132" width="22" height="22" fill="rgb(246,250,255)" stroke="#90a4ae" stroke-width="0.5"/>
  <rect x="334" y="132" width="22" height="22" fill="rgb(243,249,255)" stroke="#90a4ae" stroke-width="0.5"/>
  <rect x="356" y="132" width="22" height="22" fill="rgb(240,248,255)" stroke="#90a4ae" stroke-width="0.5"/>
  <rect x="70" y="154" width="22" height="22" fill="rgb(230,243,255)" stroke="#90a4ae" stroke-width="0.5"/>
  <rect x="92" y="154" width="22" height="22" fill="rgb(232,243,255)" stroke="#90a4ae" stroke-width="0.5"/>
  <rect x="114" y="154" width="22" height="22" fill="rgb(235,245,255)" stroke="#90a4ae" stroke-width="0.5"/>
  <rect x="136" y="154" width="22" height="22" fill="rgb(245,250,255)" stroke="#90a4ae" stroke-width="0.5"/>
  <rect x="158" y="154" width="22" height="22" fill="rgb(251,253,255)" stroke="#90a4ae" stroke-width="0.5"/>
  <rect x="180" y="154" width="22" height="22" fill="rgb(255,255,255)" stroke="#90a4ae" stroke-width="0.5"/>
  <rect x="202" y="154" width="22" height="22" fill="rgb(255,255,255)" stroke="#90a4ae" stroke-width="0.5"/>
  <rect x="224" y="154" width="22" height="22" fill="rgb(255,255,255)" stroke="#90a4ae" stroke-width="0.5"/>
  <rect x="246" y="154" width="22" height="22" fill="rgb(255,255,255)" stroke="#90a4ae" stroke-width="0.5"/>
  <rect x="268" y="154" width="22" height="22" fill="rgb(255,255,255)" stroke="#90a4ae" stroke-width="0.5"/>
  <rect x="290" y="154" width="22" height="22" fill="rgb(251,253,255)" stroke="#90a4ae" stroke-width="0.5"/>
  <rect x="312" y="154" width="22" height="22" fill="rgb(245,250,255)" stroke="#90a4ae" stroke-width="0.5"/>
  <rect x="334" y="154" width="22" height="22" fill="rgb(239,247,255)" stroke="#90a4ae" stroke-width="0.5"/>
  <rect x="356" y="154" width="22" height="22" fill="rgb(236,245,255)" stroke="#90a4ae" stroke-width="0.5"/>
  <rect x="70" y="176" width="22" height="22" fill="rgb(231,243,255)" stroke="#90a4ae" stroke-width="0.5"/>
  <rect x="92" y="176" width="22" height="22" fill="rgb(232,243,255)" stroke="#90a4ae" stroke-width="0.5"/>
  <rect x="114" y="176" width="22" height="22" fill="rgb(236,245,255)" stroke="#90a4ae" stroke-width="0.5"/>
  <rect x="136" y="176" width="22" height="22" fill="rgb(245,250,255)" stroke="#90a4ae" stroke-width="0.5"/>
  <rect x="158" y="176" width="22" height="22" fill="rgb(251,253,255)" stroke="#90a4ae" stroke-width="0.5"/>
  <rect x="180" y="176" width="22" height="22" fill="rgb(255,255,255)" stroke="#90a4ae" stroke-width="0.5"/>
  <rect x="202" y="176" width="22" height="22" fill="rgb(255,255,255)" stroke="#90a4ae" stroke-width="0.5"/>
  <rect x="224" y="176" width="22" height="22" fill="rgb(255,255,255)" stroke="#90a4ae" stroke-width="0.5"/>
  <rect x="246" y="176" width="22" height="22" fill="rgb(255,255,255)" stroke="#90a4ae" stroke-width="0.5"/>
  <rect x="268" y="176" width="22" height="22" fill="rgb(255,255,255)" stroke="#90a4ae" stroke-width="0.5"/>
  <rect x="290" y="176" width="22" height="22" fill="rgb(251,253,255)" stroke="#90a4ae" stroke-width="0.5"/>
  <rect x="312" y="176" width="22" height="22" fill="rgb(245,250,255)" stroke="#90a4ae" stroke-width="0.5"/>
  <rect x="334" y="176" width="22" height="22" fill="rgb(240,247,255)" stroke="#90a4ae" stroke-width="0.5"/>
  <rect x="356" y="176" width="22" height="22" fill="rgb(236,246,255)" stroke="#90a4ae" stroke-width="0.5"/>
  <rect x="70" y="198" width="22" height="22" fill="rgb(236,246,255)" stroke="#90a4ae" stroke-width="0.5"/>
  <rect x="92" y="198" width="22" height="22" fill="rgb(237,246,255)" stroke="#90a4ae" stroke-width="0.5"/>
  <rect x="114" y="198" width="22" height="22" fill="rgb(239,247,255)" stroke="#90a4ae" stroke-width="0.5"/>
  <rect x="136" y="198" width="22" height="22" fill="rgb(246,250,255)" stroke="#90a4ae" stroke-width="0.5"/>
  <rect x="158" y="198" width="22" height="22" fill="rgb(250,252,255)" stroke="#90a4ae" stroke-width="0.5"/>
  <rect x="180" y="198" width="22" height="22" fill="rgb(252,253,255)" stroke="#90a4ae" stroke-width="0.5"/>
  <rect x="202" y="198" width="22" height="22" fill="rgb(254,254,255)" stroke="#90a4ae" stroke-width="0.5"/>
  <rect x="224" y="198" width="22" height="22" fill="rgb(255,255,255)" stroke="#90a4ae" stroke-width="0.5"/>
  <rect x="246" y="198" width="22" height="22" fill="rgb(254,254,255)" stroke="#90a4ae" stroke-width="0.5"/>
  <rect x="268" y="198" width="22" height="22" fill="rgb(252,253,255)" stroke="#90a4ae" stroke-width="0.5"/>
  <rect x="290" y="198" width="22" height="22" fill="rgb(249,252,255)" stroke="#90a4ae" stroke-width="0.5"/>
  <rect x="312" y="198" width="22" height="22" fill="rgb(246,250,255)" stroke="#90a4ae" stroke-width="0.5"/>
  <rect x="334" y="198" width="22" height="22" fill="rgb(243,249,255)" stroke="#90a4ae" stroke-width="0.5"/>
  <rect x="356" y="198" width="22" height="22" fill="rgb(241,248,255)" stroke="#90a4ae" stroke-width="0.5"/>
  <rect x="70" y="220" width="22" height="22" fill="rgb(245,250,255)" stroke="#90a4ae" stroke-width="0.5"/>
  <rect x="92" y="220" width="22" height="22" fill="rgb(245,250,255)" stroke="#90a4ae" stroke-width="0.5"/>
  <rect x="114" y="220" width="22" height="22" fill="rgb(244,250,255)" stroke="#90a4ae" stroke-width="0.5"/>
  <rect x="136" y="220" width="22" height="22" fill="rgb(248,251,255)" stroke="#90a4ae" stroke-width="0.5"/>
  <rect x="158" y="220" width="22" height="22" fill="rgb(248,251,255)" stroke="#90a4ae" stroke-width="0.5"/>
  <rect x="180" y="220" width="22" height="22" fill="rgb(247,251,255)" stroke="#90a4ae" stroke-width="0.5"/>
  <rect x="202" y="220" width="22" height="22" fill="rgb(247,251,255)" stroke="#90a4ae" stroke-width="0.5"/>
  <rect x="224" y="220" width="22" height="22" fill="rgb(246,251,255)" stroke="#90a4ae" stroke-width="0.5"/>
  <rect x="246" y="220" width="22" height="22" fill="rgb(247,251,255)" stroke="#90a4ae" stroke-width="0.5"/>
  <rect x="268" y="220" width="22" height="22" fill="rgb(247,251,255)" stroke="#90a4ae" stroke-width="0.5"/>
  <rect x="290" y="220" width="22" height="22" fill="rgb(248,251,255)" stroke="#90a4ae" stroke-width="0.5"/>
  <rect x="312" y="220" width="22" height="22" fill="rgb(248,251,255)" stroke="#90a4ae" stroke-width="0.5"/>
  <rect x="334" y="220" width="22" height="22" fill="rgb(249,252,255)" stroke="#90a4ae" stroke-width="0.5"/>
  <rect x="356" y="220" width="22" height="22" fill="rgb(249,252,255)" stroke="#90a4ae" stroke-width="0.5"/>
  <rect x="70" y="242" width="22" height="22" fill="rgb(253,254,255)" stroke="#90a4ae" stroke-width="0.5"/>
  <rect x="92" y="242" width="22" height="22" fill="rgb(252,253,255)" stroke="#90a4ae" stroke-width="0.5"/>
  <rect x="114" y="242" width="22" height="22" fill="rgb(249,252,255)" stroke="#90a4ae" stroke-width="0.5"/>
  <rect x="136" y="242" width="22" height="22" fill="rgb(250,252,255)" stroke="#90a4ae" stroke-width="0.5"/>
  <rect x="158" y="242" width="22" height="22" fill="rgb(246,250,255)" stroke="#90a4ae" stroke-width="0.5"/>
  <rect x="180" y="242" width="22" height="22" fill="rgb(242,248,255)" stroke="#90a4ae" stroke-width="0.5"/>
  <rect x="202" y="242" width="22" height="22" fill="rgb(239,247,255)" stroke="#90a4ae" stroke-width="0.5"/>
  <rect x="224" y="242" width="22" height="22" fill="rgb(238,247,255)" stroke="#90a4ae" stroke-width="0.5"/>
  <rect x="246" y="242" width="22" height="22" fill="rgb(239,247,255)" stroke="#90a4ae" stroke-width="0.5"/>
  <rect x="268" y="242" width="22" height="22" fill="rgb(242,248,255)" stroke="#90a4ae" stroke-width="0.5"/>
  <rect x="290" y="242" width="22" height="22" fill="rgb(246,250,255)" stroke="#90a4ae" stroke-width="0.5"/>
  <rect x="312" y="242" width="22" height="22" fill="rgb(250,252,255)" stroke="#90a4ae" stroke-width="0.5"/>
  <rect x="334" y="242" width="22" height="22" fill="rgb(254,254,255)" stroke="#90a4ae" stroke-width="0.5"/>
  <rect x="356" y="242" width="22" height="22" fill="rgb(255,255,255)" stroke="#90a4ae" stroke-width="0.5"/>
  <rect x="70" y="264" width="22" height="22" fill="rgb(255,255,255)" stroke="#90a4ae" stroke-width="0.5"/>
  <rect x="92" y="264" width="22" height="22" fill="rgb(255,255,255)" stroke="#90a4ae" stroke-width="0.5"/>
  <rect x="114" y="264" width="22" height="22" fill="rgb(252,253,255)" stroke="#90a4ae" stroke-width="0.5"/>
  <rect x="136" y="264" width="22" height="22" fill="rgb(251,253,255)" stroke="#90a4ae" stroke-width="0.5"/>
  <rect x="158" y="264" width="22" height="22" fill="rgb(245,250,255)" stroke="#90a4ae" stroke-width="0.5"/>
  <rect x="180" y="264" width="22" height="22" fill="rgb(239,247,255)" stroke="#90a4ae" stroke-width="0.5"/>
  <rect x="202" y="264" width="22" height="22" fill="rgb(236,245,255)" stroke="#90a4ae" stroke-width="0.5"/>
  <rect x="224" y="264" width="22" height="22" fill="rgb(234,245,255)" stroke="#90a4ae" stroke-width="0.5"/>
  <rect x="246" y="264" width="22" height="22" fill="rgb(236,245,255)" stroke="#90a4ae" stroke-width="0.5"/>
  <rect x="268" y="264" width="22" height="22" fill="rgb(240,247,255)" stroke="#90a4ae" stroke-width="0.5"/>
  <rect x="290" y="264" width="22" height="22" fill="rgb(245,250,255)" stroke="#90a4ae" stroke-width="0.5"/>
  <rect x="312" y="264" width="22" height="22" fill="rgb(251,253,255)" stroke="#90a4ae" stroke-width="0.5"/>
  <rect x="334" y="264" width="22" height="22" fill="rgb(255,255,255)" stroke="#90a4ae" stroke-width="0.5"/>
  <rect x="356" y="264" width="22" height="22" fill="rgb(255,255,255)" stroke="#90a4ae" stroke-width="0.5"/>
  <rect x="70" y="286" width="22" height="22" fill="rgb(255,255,255)" stroke="#90a4ae" stroke-width="0.5"/>
  <rect x="92" y="286" width="22" height="22" fill="rgb(254,254,255)" stroke="#90a4ae" stroke-width="0.5"/>
  <rect x="114" y="286" width="22" height="22" fill="rgb(251,253,255)" stroke="#90a4ae" stroke-width="0.5"/>
  <rect x="136" y="286" width="22" height="22" fill="rgb(251,253,255)" stroke="#90a4ae" stroke-width="0.5"/>
  <rect x="158" y="286" width="22" height="22" fill="rgb(245,250,255)" stroke="#90a4ae" stroke-width="0.5"/>
  <rect x="180" y="286" width="22" height="22" fill="rgb(240,248,255)" stroke="#90a4ae" stroke-width="0.5"/>
  <rect x="202" y="286" width="22" height="22" fill="rgb(237,246,255)" stroke="#90a4ae" stroke-width="0.5"/>
  <rect x="224" y="286" width="22" height="22" fill="rgb(236,245,255)" stroke="#90a4ae" stroke-width="0.5"/>
  <rect x="246" y="286" width="22" height="22" fill="rgb(237,246,255)" stroke="#90a4ae" stroke-width="0.5"/>
  <rect x="268" y="286" width="22" height="22" fill="rgb(240,248,255)" stroke="#90a4ae" stroke-width="0.5"/>
  <rect x="290" y="286" width="22" height="22" fill="rgb(245,250,255)" stroke="#90a4ae" stroke-width="0.5"/>
  <rect x="312" y="286" width="22" height="22" fill="rgb(251,253,255)" stroke="#90a4ae" stroke-width="0.5"/>
  <rect x="334" y="286" width="22" height="22" fill="rgb(255,255,255)" stroke="#90a4ae" stroke-width="0.5"/>
  <rect x="356" y="286" width="22" height="22" fill="rgb(255,255,255)" stroke="#90a4ae" stroke-width="0.5"/>
  <rect x="70" y="308" width="22" height="22" fill="rgb(249,252,255)" stroke="#90a4ae" stroke-width="0.5"/>
  <rect x="92" y="308" width="22" height="22" fill="rgb(249,252,255)" stroke="#90a4ae" stroke-width="0.5"/>
  <rect x="114" y="308" width="22" height="22" fill="rgb(247,251,255)" stroke="#90a4ae" stroke-width="0.5"/>
  <rect x="136" y="308" width="22" height="22" fill="rgb(249,252,255)" stroke="#90a4ae" stroke-width="0.5"/>
  <rect x="158" y="308" width="22" height="22" fill="rgb(247,251,255)" stroke="#90a4ae" stroke-width="0.5"/>
  <rect x="180" y="308" width="22" height="22" fill="rgb(244,249,255)" stroke="#90a4ae" stroke-width="0.5"/>
  <rect x="202" y="308" width="22" height="22" fill="rgb(243,249,255)" stroke="#90a4ae" stroke-width="0.5"/>
  <rect x="224" y="308" width="22" height="22" fill="rgb(242,248,255)" stroke="#90a4ae" stroke-width="0.5"/>
  <rect x="246" y="308" width="22" height="22" fill="rgb(243,249,255)" stroke="#90a4ae" stroke-width="0.5"/>
  <rect x="268" y="308" width="22" height="22" fill="rgb(244,250,255)" stroke="#90a4ae" stroke-width="0.5"/>
  <rect x="290" y="308" width="22" height="22" fill="rgb(247,251,255)" stroke="#90a4ae" stroke-width="0.5"/>
  <rect x="312" y="308" width="22" height="22" fill="rgb(249,252,255)" stroke="#90a4ae" stroke-width="0.5"/>
  <rect x="334" y="308" width="22" height="22" fill="rgb(252,253,255)" stroke="#90a4ae" stroke-width="0.5"/>
  <rect x="356" y="308" width="22" height="22" fill="rgb(253,254,255)" stroke="#90a4ae" stroke-width="0.5"/>
  <rect x="70" y="330" width="22" height="22" fill="rgb(241,248,255)" stroke="#90a4ae" stroke-width="0.5"/>
  <rect x="92" y="330" width="22" height="22" fill="rgb(241,248,255)" stroke="#90a4ae" stroke-width="0.5"/>
  <rect x="114" y="330" width="22" height="22" fill="rgb(242,248,255)" stroke="#90a4ae" stroke-width="0.5"/>
  <rect x="136" y="330" width="22" height="22" fill="rgb(247,251,255)" stroke="#90a4ae" stroke-width="0.5"/>
  <rect x="158" y="330" width="22" height="22" fill="rgb(249,252,255)" stroke="#90a4ae" stroke-width="0.5"/>
  <rect x="180" y="330" width="22" height="22" fill="rgb(250,252,255)" stroke="#90a4ae" stroke-width="0.5"/>
  <rect x="202" y="330" width="22" height="22" fill="rgb(251,253,255)" stroke="#90a4ae" stroke-width="0.5"/>
  <rect x="224" y="330" width="22" height="22" fill="rgb(251,253,255)" stroke="#90a4ae" stroke-width="0.5"/>
  <rect x="246" y="330" width="22" height="22" fill="rgb(251,253,255)" stroke="#90a4ae" stroke-width="0.5"/>
  <rect x="268" y="330" width="22" height="22" fill="rgb(250,252,255)" stroke="#90a4ae" stroke-width="0.5"/>
  <rect x="290" y="330" width="22" height="22" fill="rgb(249,252,255)" stroke="#90a4ae" stroke-width="0.5"/>
  <rect x="312" y="330" width="22" height="22" fill="rgb(247,251,255)" stroke="#90a4ae" stroke-width="0.5"/>
  <rect x="334" y="330" width="22" height="22" fill="rgb(246,250,255)" stroke="#90a4ae" stroke-width="0.5"/>
  <rect x="356" y="330" width="22" height="22" fill="rgb(245,250,255)" stroke="#90a4ae" stroke-width="0.5"/>
  <rect x="70" y="352" width="22" height="22" fill="rgb(233,244,255)" stroke="#90a4ae" stroke-width="0.5"/>
  <rect x="92" y="352" width="22" height="22" fill="rgb(234,244,255)" stroke="#90a4ae" stroke-width="0.5"/>
  <rect x="114" y="352" width="22" height="22" fill="rgb(237,246,255)" stroke="#90a4ae" stroke-width="0.5"/>
  <rect x="136" y="352" width="22" height="22" fill="rgb(246,250,255)" stroke="#90a4ae" stroke-width="0.5"/>
  <rect x="158" y="352" width="22" height="22" fill="rgb(250,252,255)" stroke="#90a4ae" stroke-width="0.5"/>
  <rect x="180" y="352" width="22" height="22" fill="rgb(254,254,255)" stroke="#90a4ae" stroke-width="0.5"/>
  <rect x="202" y="352" width="22" height="22" fill="rgb(255,255,255)" stroke="#90a4ae" stroke-width="0.5"/>
  <rect x="224" y="352" width="22" height="22" fill="rgb(255,255,255)" stroke="#90a4ae" stroke-width="0.5"/>
  <rect x="246" y="352" width="22" height="22" fill="rgb(255,255,255)" stroke="#90a4ae" stroke-width="0.5"/>
  <rect x="268" y="352" width="22" height="22" fill="rgb(254,254,255)" stroke="#90a4ae" stroke-width="0.5"/>
  <rect x="290" y="352" width="22" height="22" fill="rgb(250,252,255)" stroke="#90a4ae" stroke-width="0.5"/>
  <rect x="312" y="352" width="22" height="22" fill="rgb(245,250,255)" stroke="#90a4ae" stroke-width="0.5"/>
  <rect x="334" y="352" width="22" height="22" fill="rgb(241,248,255)" stroke="#90a4ae" stroke-width="0.5"/>
  <rect x="356" y="352" width="22" height="22" fill="rgb(238,247,255)" stroke="#90a4ae" stroke-width="0.5"/>
  <rect x="70" y="374" width="22" height="22" fill="rgb(230,242,255)" stroke="#90a4ae" stroke-width="0.5"/>
  <rect x="92" y="374" width="22" height="22" fill="rgb(231,243,255)" stroke="#90a4ae" stroke-width="0.5"/>
  <rect x="114" y="374" width="22" height="22" fill="rgb(235,245,255)" stroke="#90a4ae" stroke-width="0.5"/>
  <rect x="136" y="374" width="22" height="22" fill="rgb(245,250,255)" stroke="#90a4ae" stroke-width="0.5"/>
  <rect x="158" y="374" width="22" height="22" fill="rgb(251,253,255)" stroke="#90a4ae" stroke-width="0.5"/>
  <rect x="180" y="374" width="22" height="22" fill="rgb(255,255,255)" stroke="#90a4ae" stroke-width="0.5"/>
  <rect x="202" y="374" width="22" height="22" fill="rgb(255,255,255)" stroke="#90a4ae" stroke-width="0.5"/>
  <rect x="224" y="374" width="22" height="22" fill="rgb(255,255,255)" stroke="#90a4ae" stroke-width="0.5"/>
  <rect x="246" y="374" width="22" height="22" fill="rgb(255,255,255)" stroke="#90a4ae" stroke-width="0.5"/>
  <rect x="268" y="374" width="22" height="22" fill="rgb(255,255,255)" stroke="#90a4ae" stroke-width="0.5"/>
  <rect x="290" y="374" width="22" height="22" fill="rgb(251,253,255)" stroke="#90a4ae" stroke-width="0.5"/>
  <rect x="312" y="374" width="22" height="22" fill="rgb(245,250,255)" stroke="#90a4ae" stroke-width="0.5"/>
  <rect x="334" y="374" width="22" height="22" fill="rgb(239,247,255)" stroke="#90a4ae" stroke-width="0.5"/>
  <rect x="356" y="374" width="22" height="22" fill="rgb(235,245,255)" stroke="#90a4ae" stroke-width="0.5"/>
  <rect x="70" y="396" width="22" height="22" fill="rgb(232,244,255)" stroke="#90a4ae" stroke-width="0.5"/>
  <rect x="92" y="396" width="22" height="22" fill="rgb(233,244,255)" stroke="#90a4ae" stroke-width="0.5"/>
  <rect x="114" y="396" width="22" height="22" fill="rgb(236,246,255)" stroke="#90a4ae" stroke-width="0.5"/>
  <rect x="136" y="396" width="22" height="22" fill="rgb(222,239,255)" stroke="#90a4ae" stroke-width="0.5"/>
  <rect x="158" y="396" width="22" height="22" fill="rgb(225,240,255)" stroke="#90a4ae" stroke-width="0.5"/>
  <rect x="180" y="396" width="22" height="22" fill="rgb(227,241,255)" stroke="#90a4ae" stroke-width="0.5"/>
  <rect x="202" y="396" width="22" height="22" fill="rgb(228,241,255)" stroke="#90a4ae" stroke-width="0.5"/>
  <rect x="224" y="396" width="22" height="22" fill="rgb(226,241,255)" stroke="#90a4ae" stroke-width="0.5"/>
  <rect x="246" y="396" width="22" height="22" fill="rgb(223,239,255)" stroke="#90a4ae" stroke-width="0.5"/>
  <rect x="268" y="396" width="22" height="22" fill="rgb(255,255,255)" stroke="#90a4ae" stroke-width="0.5"/>
  <rect x="290" y="396" width="22" height="22" fill="rgb(250,252,255)" stroke="#90a4ae" stroke-width="0.5"/>
  <rect x="312" y="396" width="22" height="22" fill="rgb(245,250,255)" stroke="#90a4ae" stroke-width="0.5"/>
  <rect x="334" y="396" width="22" height="22" fill="rgb(241,248,255)" stroke="#90a4ae" stroke-width="0.5"/>
  <rect x="356" y="396" width="22" height="22" fill="rgb(238,246,255)" stroke="#90a4ae" stroke-width="0.5"/>
  <rect x="65" y="393" width="318" height="28" fill="none" stroke="#c62828" stroke-width="3"/>
  <text x="392" y="411.0" class="lbl" fill="#c62828">i = L−1</text>
  <rect x="134" y="394" width="136" height="26" fill="rgba(255,193,7,0.22)" stroke="#f57f17" stroke-width="2"/>
  <line x1="202.0" y1="430" x2="202.0" y2="461" stroke="#444" marker-end="url(#mk)"/>
  <text x="202.0" y="447" text-anchor="middle" class="lbl" fill="#e65100">切片 → v</text>
  <rect x="131" y="438.4" width="16" height="34.6" fill="#1565c0" stroke="#0d47a1" stroke-width="0.7"/>
  <text x="139.0" y="487" text-anchor="middle" class="ax">3</text>
  <rect x="152" y="440.4" width="16" height="32.6" fill="#1565c0" stroke="#0d47a1" stroke-width="0.7"/>
  <text x="160.0" y="487" text-anchor="middle" class="ax">4</text>
  <rect x="173" y="442.0" width="16" height="31.0" fill="#1565c0" stroke="#0d47a1" stroke-width="0.7"/>
  <text x="181.0" y="487" text-anchor="middle" class="ax">5</text>
  <rect x="194" y="442.5" width="16" height="30.5" fill="#1565c0" stroke="#0d47a1" stroke-width="0.7"/>
  <text x="202.0" y="487" text-anchor="middle" class="ax">6</text>
  <rect x="215" y="441.4" width="16" height="31.6" fill="#1565c0" stroke="#0d47a1" stroke-width="0.7"/>
  <text x="223.0" y="487" text-anchor="middle" class="ax">7</text>
  <rect x="236" y="438.7" width="16" height="34.3" fill="#1565c0" stroke="#0d47a1" stroke-width="0.7"/>
  <text x="244.0" y="487" text-anchor="middle" class="ax">8</text>
  <text x="191.5" y="505" text-anchor="middle" class="sub">v[j] = A[L−1, j]</text>
  <rect x="128" y="433.4" width="22" height="42.6" fill="none" stroke="#ffd600" stroke-width="3"/>
  <rect x="233" y="433.7" width="22" height="42.3" fill="none" stroke="#ffd600" stroke-width="3"/>
  <rect x="149" y="435.4" width="22" height="40.6" fill="none" stroke="#ffd600" stroke-width="3"/>
  <text x="191.5" y="525" text-anchor="middle" class="lbl" fill="#f57c00">topk（示意 3 个）</text>
  <text x="505" y="108" class="cap">keep 掩码（一行）</text>
  <rect x="505" y="123" width="14" height="14" fill="#e1bee7" stroke="#666" stroke-width="0.5"/>
  <rect x="521" y="123" width="14" height="14" fill="#e1bee7" stroke="#666" stroke-width="0.5"/>
  <rect x="537" y="123" width="14" height="14" fill="#e1bee7" stroke="#666" stroke-width="0.5"/>
  <rect x="553" y="123" width="14" height="14" fill="#c8e6c9" stroke="#666" stroke-width="0.5"/>
  <rect x="569" y="123" width="14" height="14" fill="#ffcdd2" stroke="#666" stroke-width="0.5"/>
  <rect x="585" y="123" width="14" height="14" fill="#c8e6c9" stroke="#666" stroke-width="0.5"/>
  <rect x="601" y="123" width="14" height="14" fill="#ffcdd2" stroke="#666" stroke-width="0.5"/>
  <rect x="617" y="123" width="14" height="14" fill="#c8e6c9" stroke="#666" stroke-width="0.5"/>
  <rect x="633" y="123" width="14" height="14" fill="#ffcdd2" stroke="#666" stroke-width="0.5"/>
  <rect x="649" y="123" width="14" height="14" fill="#eceff1" stroke="#666" stroke-width="0.5"/>
  <rect x="665" y="123" width="14" height="14" fill="#eceff1" stroke="#666" stroke-width="0.5"/>
  <rect x="681" y="123" width="14" height="14" fill="#eceff1" stroke="#666" stroke-width="0.5"/>
  <rect x="697" y="123" width="14" height="14" fill="#eceff1" stroke="#666" stroke-width="0.5"/>
  <rect x="713" y="123" width="14" height="14" fill="#eceff1" stroke="#666" stroke-width="0.5"/>
  <text x="505" y="153" class="ax">紫=前缀 绿=保留图像 粉=删图像 灰=后缀</text>
</svg>